<?xml version="1.0" encoding="UTF-8" standalone="no"?>
<!DOCTYPE svg PUBLIC "-//W3C//DTD SVG 1.1//EN" "http://www.w3.org/Graphics/SVG/1.1/DTD/svg11.dtd">
<svg width="100%" height="100%" viewBox="0 0 307 89" version="1.1" xmlns="http://www.w3.org/2000/svg" xmlns:xlink="http://www.w3.org/1999/xlink" xml:space="preserve" xmlns:serif="http://www.serif.com/" style="fill-rule:evenodd;clip-rule:evenodd;stroke-linejoin:round;stroke-miterlimit:2;">
    <g transform="matrix(1,0,0,1,-2516.66,-205.705)">
        <g transform="matrix(1,0,0,1,-0.924982,0)">
            <g transform="matrix(9.81725,0,0,9.81725,1662.38,-2099.83)">
                <g transform="matrix(2.62574,0,0,2.62574,104.954,238.592)">
                    <path d="M0.031,-0C0.027,-0 0.024,-0.001 0.023,-0.004C0.022,-0.006 0.022,-0.009 0.024,-0.012L0.275,-0.377C0.276,-0.379 0.277,-0.381 0.277,-0.384C0.277,-0.387 0.276,-0.389 0.275,-0.391L0.028,-0.751L0.026,-0.756C0.026,-0.761 0.029,-0.763 0.035,-0.763L0.122,-0.763C0.127,-0.763 0.131,-0.761 0.134,-0.757L0.335,-0.458C0.337,-0.455 0.339,-0.453 0.342,-0.453C0.345,-0.453 0.347,-0.455 0.349,-0.458L0.55,-0.757C0.553,-0.761 0.557,-0.763 0.562,-0.763L0.649,-0.763C0.653,-0.763 0.656,-0.762 0.657,-0.759C0.658,-0.757 0.658,-0.754 0.656,-0.751L0.409,-0.391C0.408,-0.389 0.407,-0.387 0.407,-0.384C0.407,-0.381 0.408,-0.379 0.409,-0.377L0.66,-0.012L0.662,-0.007C0.662,-0.002 0.659,-0 0.653,-0L0.567,-0C0.562,-0 0.558,-0.002 0.555,-0.006L0.349,-0.304C0.347,-0.307 0.345,-0.309 0.342,-0.309C0.339,-0.309 0.337,-0.307 0.335,-0.304L0.129,-0.006C0.126,-0.002 0.122,-0 0.117,-0L0.031,-0Z" style="fill-rule:nonzero;"/>
                </g>
                <g transform="matrix(2.62574,0,0,2.62574,106.75,238.592)">
                    <path d="M0.081,-0C0.074,-0 0.071,-0.003 0.071,-0.01L0.071,-0.543C0.071,-0.55 0.074,-0.553 0.081,-0.553L0.146,-0.553C0.153,-0.553 0.156,-0.55 0.156,-0.543L0.156,-0.01C0.156,-0.003 0.153,-0 0.146,-0L0.081,-0ZM0.114,-0.648C0.096,-0.648 0.081,-0.654 0.068,-0.667C0.055,-0.679 0.049,-0.694 0.049,-0.711C0.049,-0.728 0.055,-0.743 0.068,-0.755C0.081,-0.767 0.096,-0.773 0.114,-0.773C0.132,-0.773 0.147,-0.767 0.16,-0.755C0.173,-0.743 0.179,-0.728 0.179,-0.711C0.179,-0.694 0.173,-0.679 0.16,-0.667C0.147,-0.654 0.132,-0.648 0.114,-0.648Z" style="fill-rule:nonzero;"/>
                </g>
                <g transform="matrix(2.62574,0,0,2.62574,107.346,238.592)">
                    <path d="M0.228,0.01C0.173,0.01 0.129,-0.004 0.097,-0.032C0.064,-0.06 0.048,-0.098 0.048,-0.147C0.048,-0.195 0.066,-0.233 0.102,-0.261C0.131,-0.284 0.174,-0.302 0.229,-0.313L0.417,-0.349C0.423,-0.35 0.426,-0.354 0.426,-0.36C0.424,-0.399 0.413,-0.429 0.392,-0.45C0.367,-0.475 0.333,-0.488 0.29,-0.488C0.257,-0.488 0.229,-0.48 0.204,-0.463C0.18,-0.446 0.164,-0.424 0.156,-0.396C0.154,-0.39 0.15,-0.387 0.145,-0.387L0.08,-0.387C0.073,-0.387 0.07,-0.391 0.071,-0.398C0.082,-0.45 0.108,-0.491 0.149,-0.52C0.19,-0.549 0.237,-0.563 0.291,-0.563C0.324,-0.563 0.354,-0.558 0.382,-0.549C0.41,-0.539 0.434,-0.525 0.453,-0.506C0.478,-0.482 0.494,-0.454 0.501,-0.423C0.508,-0.392 0.511,-0.359 0.511,-0.326L0.511,-0.01C0.511,-0.003 0.508,-0 0.501,-0L0.436,-0C0.429,-0 0.426,-0.003 0.426,-0.01L0.426,-0.067C0.426,-0.072 0.424,-0.075 0.421,-0.075C0.418,-0.075 0.416,-0.074 0.414,-0.071C0.397,-0.05 0.379,-0.034 0.359,-0.022C0.325,-0.001 0.281,0.01 0.228,0.01ZM0.238,-0.065C0.272,-0.065 0.301,-0.071 0.326,-0.084C0.362,-0.103 0.388,-0.127 0.403,-0.157C0.418,-0.187 0.426,-0.225 0.427,-0.271C0.427,-0.274 0.426,-0.277 0.424,-0.279C0.422,-0.28 0.419,-0.281 0.416,-0.28L0.247,-0.246C0.206,-0.238 0.175,-0.225 0.156,-0.207C0.141,-0.192 0.133,-0.172 0.133,-0.149C0.133,-0.124 0.142,-0.103 0.162,-0.088C0.181,-0.073 0.206,-0.065 0.238,-0.065Z" style="fill-rule:nonzero;"/>
                </g>
                <g transform="matrix(2.62574,0,0,2.62574,108.859,238.592)">
                    <path d="M0.318,0.01C0.266,0.01 0.22,-0.002 0.179,-0.027C0.138,-0.052 0.106,-0.086 0.083,-0.13C0.059,-0.174 0.048,-0.224 0.048,-0.279C0.048,-0.333 0.059,-0.382 0.083,-0.425C0.106,-0.468 0.138,-0.502 0.179,-0.527C0.22,-0.551 0.266,-0.563 0.318,-0.563C0.37,-0.563 0.417,-0.551 0.458,-0.527C0.499,-0.502 0.532,-0.468 0.555,-0.425C0.578,-0.382 0.59,-0.333 0.59,-0.279C0.59,-0.224 0.579,-0.174 0.556,-0.131C0.533,-0.087 0.5,-0.053 0.459,-0.028C0.418,-0.003 0.371,0.01 0.318,0.01ZM0.318,-0.065C0.353,-0.065 0.384,-0.074 0.412,-0.093C0.441,-0.112 0.463,-0.137 0.48,-0.17C0.496,-0.202 0.504,-0.238 0.504,-0.279C0.504,-0.318 0.496,-0.353 0.48,-0.385C0.464,-0.417 0.442,-0.442 0.413,-0.461C0.385,-0.479 0.353,-0.488 0.318,-0.488C0.283,-0.488 0.252,-0.479 0.224,-0.461C0.195,-0.443 0.173,-0.418 0.157,-0.386C0.141,-0.354 0.133,-0.318 0.133,-0.279C0.133,-0.238 0.141,-0.202 0.157,-0.169C0.173,-0.136 0.195,-0.111 0.224,-0.093C0.252,-0.074 0.283,-0.065 0.318,-0.065Z" style="fill-rule:nonzero;"/>
                </g>
                <g transform="matrix(2.62574,0,0,2.62574,110.537,238.592)">
                    <path d="M0.081,-0C0.074,-0 0.071,-0.003 0.071,-0.01L0.071,-0.543C0.071,-0.55 0.074,-0.553 0.081,-0.553L0.146,-0.553C0.153,-0.553 0.156,-0.55 0.156,-0.543L0.156,-0.486C0.156,-0.481 0.158,-0.478 0.161,-0.478C0.164,-0.478 0.166,-0.479 0.168,-0.482C0.193,-0.511 0.217,-0.532 0.241,-0.545C0.265,-0.557 0.291,-0.563 0.32,-0.563C0.355,-0.563 0.386,-0.555 0.412,-0.54C0.44,-0.525 0.458,-0.503 0.469,-0.474C0.472,-0.466 0.476,-0.466 0.48,-0.473C0.515,-0.533 0.571,-0.563 0.648,-0.563C0.709,-0.563 0.755,-0.546 0.786,-0.51C0.817,-0.475 0.832,-0.425 0.832,-0.36L0.832,-0.01C0.832,-0.003 0.829,-0 0.822,-0L0.757,-0C0.75,-0 0.747,-0.003 0.747,-0.01L0.747,-0.34C0.747,-0.387 0.737,-0.424 0.718,-0.45C0.698,-0.475 0.67,-0.488 0.635,-0.488C0.598,-0.488 0.568,-0.476 0.545,-0.451C0.526,-0.431 0.513,-0.405 0.505,-0.373C0.498,-0.341 0.494,-0.3 0.494,-0.25L0.494,-0.01C0.494,-0.003 0.491,-0 0.484,-0L0.419,-0C0.412,-0 0.409,-0.003 0.409,-0.01L0.409,-0.34C0.409,-0.387 0.399,-0.423 0.379,-0.449C0.358,-0.475 0.331,-0.488 0.296,-0.488C0.259,-0.488 0.229,-0.475 0.206,-0.448C0.189,-0.429 0.176,-0.404 0.168,-0.373C0.16,-0.342 0.156,-0.301 0.156,-0.25L0.156,-0.01C0.156,-0.003 0.153,-0 0.146,-0L0.081,-0Z" style="fill-rule:nonzero;"/>
                </g>
                <g transform="matrix(2.62574,0,0,2.62574,112.897,238.592)">
                    <path d="M0.081,-0C0.074,-0 0.071,-0.003 0.071,-0.01L0.071,-0.543C0.071,-0.55 0.074,-0.553 0.081,-0.553L0.146,-0.553C0.153,-0.553 0.156,-0.55 0.156,-0.543L0.156,-0.01C0.156,-0.003 0.153,-0 0.146,-0L0.081,-0ZM0.114,-0.648C0.096,-0.648 0.081,-0.654 0.068,-0.667C0.055,-0.679 0.049,-0.694 0.049,-0.711C0.049,-0.728 0.055,-0.743 0.068,-0.755C0.081,-0.767 0.096,-0.773 0.114,-0.773C0.132,-0.773 0.147,-0.767 0.16,-0.755C0.173,-0.743 0.179,-0.728 0.179,-0.711C0.179,-0.694 0.173,-0.679 0.16,-0.667C0.147,-0.654 0.132,-0.648 0.114,-0.648Z" style="fill-rule:nonzero;"/>
                </g>
                <g transform="matrix(2.62574,0,0,2.62574,104.954,241.218)">
                    <path d="M0.089,-0C0.082,-0 0.079,-0.003 0.079,-0.01L0.079,-0.753C0.079,-0.76 0.082,-0.763 0.089,-0.763L0.562,-0.763C0.569,-0.763 0.572,-0.76 0.572,-0.753L0.572,-0.69C0.572,-0.683 0.569,-0.68 0.562,-0.68L0.181,-0.68C0.174,-0.68 0.171,-0.677 0.171,-0.67L0.171,-0.434C0.171,-0.427 0.174,-0.424 0.181,-0.424L0.515,-0.424C0.522,-0.424 0.525,-0.421 0.525,-0.414L0.525,-0.352C0.525,-0.345 0.522,-0.342 0.515,-0.342L0.181,-0.342C0.174,-0.342 0.171,-0.339 0.171,-0.332L0.171,-0.01C0.171,-0.003 0.168,-0 0.161,-0L0.089,-0Z" style="fill-rule:nonzero;"/>
                </g>
                <g transform="matrix(2.62574,0,0,2.62574,106.464,241.218)">
                    <path d="M0.317,0.01C0.265,0.01 0.219,-0.002 0.178,-0.027C0.137,-0.052 0.105,-0.086 0.082,-0.129C0.059,-0.172 0.048,-0.221 0.048,-0.275C0.048,-0.326 0.059,-0.374 0.08,-0.418C0.101,-0.461 0.132,-0.496 0.172,-0.523C0.213,-0.55 0.26,-0.563 0.315,-0.563C0.362,-0.563 0.406,-0.552 0.447,-0.531C0.488,-0.51 0.52,-0.478 0.545,-0.438C0.57,-0.397 0.582,-0.347 0.582,-0.29L0.582,-0.27C0.582,-0.263 0.579,-0.26 0.572,-0.26L0.142,-0.26C0.139,-0.26 0.136,-0.259 0.135,-0.257C0.133,-0.255 0.132,-0.253 0.133,-0.25C0.136,-0.232 0.139,-0.217 0.143,-0.205C0.157,-0.162 0.18,-0.128 0.211,-0.103C0.242,-0.078 0.277,-0.065 0.316,-0.065C0.354,-0.065 0.387,-0.075 0.415,-0.095C0.443,-0.114 0.464,-0.139 0.478,-0.17C0.48,-0.175 0.484,-0.178 0.489,-0.178L0.56,-0.178C0.563,-0.178 0.566,-0.177 0.568,-0.175C0.57,-0.174 0.57,-0.172 0.569,-0.169C0.55,-0.116 0.519,-0.073 0.476,-0.04C0.433,-0.007 0.38,0.01 0.317,0.01ZM0.481,-0.335C0.484,-0.335 0.487,-0.336 0.489,-0.338C0.49,-0.34 0.491,-0.342 0.49,-0.345C0.487,-0.364 0.484,-0.378 0.479,-0.389C0.465,-0.42 0.444,-0.445 0.414,-0.462C0.386,-0.479 0.353,-0.488 0.317,-0.488C0.28,-0.488 0.248,-0.479 0.221,-0.462C0.193,-0.445 0.171,-0.42 0.156,-0.389C0.15,-0.376 0.145,-0.362 0.142,-0.346L0.142,-0.344C0.142,-0.338 0.145,-0.335 0.151,-0.335L0.481,-0.335Z" style="fill-rule:nonzero;"/>
                </g>
                <g transform="matrix(2.62574,0,0,2.62574,108.116,241.218)">
                    <path d="M0.296,0.01C0.247,0.01 0.204,-0.002 0.167,-0.026C0.13,-0.05 0.101,-0.084 0.081,-0.127C0.06,-0.17 0.05,-0.22 0.05,-0.276C0.05,-0.332 0.06,-0.382 0.081,-0.426C0.101,-0.469 0.13,-0.503 0.167,-0.527C0.203,-0.551 0.247,-0.563 0.296,-0.563C0.331,-0.563 0.362,-0.557 0.388,-0.545C0.414,-0.533 0.44,-0.512 0.465,-0.482C0.467,-0.479 0.469,-0.478 0.472,-0.478C0.475,-0.478 0.477,-0.481 0.477,-0.486L0.477,-0.753C0.477,-0.76 0.48,-0.763 0.487,-0.763L0.552,-0.763C0.559,-0.763 0.562,-0.76 0.562,-0.753L0.562,-0.01C0.562,-0.003 0.559,-0 0.552,-0L0.487,-0C0.48,-0 0.477,-0.003 0.477,-0.01L0.477,-0.067C0.477,-0.072 0.475,-0.075 0.472,-0.075C0.469,-0.075 0.467,-0.074 0.465,-0.071C0.44,-0.042 0.414,-0.021 0.388,-0.009C0.362,0.004 0.331,0.01 0.296,0.01ZM0.304,-0.065C0.338,-0.065 0.368,-0.074 0.395,-0.092C0.422,-0.11 0.443,-0.135 0.458,-0.168C0.472,-0.2 0.48,-0.236 0.48,-0.276C0.48,-0.317 0.472,-0.353 0.458,-0.385C0.443,-0.417 0.422,-0.442 0.395,-0.461C0.368,-0.479 0.338,-0.488 0.304,-0.488C0.27,-0.488 0.24,-0.479 0.215,-0.461C0.189,-0.442 0.169,-0.417 0.156,-0.385C0.142,-0.353 0.135,-0.317 0.135,-0.276C0.135,-0.236 0.142,-0.2 0.156,-0.168C0.169,-0.136 0.189,-0.111 0.215,-0.093C0.24,-0.074 0.27,-0.065 0.304,-0.065Z" style="fill-rule:nonzero;"/>
                </g>
                <g transform="matrix(2.62574,0,0,2.62574,109.712,241.218)">
                    <path d="M0.317,0.01C0.265,0.01 0.219,-0.002 0.178,-0.027C0.137,-0.052 0.105,-0.086 0.082,-0.129C0.059,-0.172 0.048,-0.221 0.048,-0.275C0.048,-0.326 0.059,-0.374 0.08,-0.418C0.101,-0.461 0.132,-0.496 0.172,-0.523C0.213,-0.55 0.26,-0.563 0.315,-0.563C0.362,-0.563 0.406,-0.552 0.447,-0.531C0.488,-0.51 0.52,-0.478 0.545,-0.438C0.57,-0.397 0.582,-0.347 0.582,-0.29L0.582,-0.27C0.582,-0.263 0.579,-0.26 0.572,-0.26L0.142,-0.26C0.139,-0.26 0.136,-0.259 0.135,-0.257C0.133,-0.255 0.132,-0.253 0.133,-0.25C0.136,-0.232 0.139,-0.217 0.143,-0.205C0.157,-0.162 0.18,-0.128 0.211,-0.103C0.242,-0.078 0.277,-0.065 0.316,-0.065C0.354,-0.065 0.387,-0.075 0.415,-0.095C0.443,-0.114 0.464,-0.139 0.478,-0.17C0.48,-0.175 0.484,-0.178 0.489,-0.178L0.56,-0.178C0.563,-0.178 0.566,-0.177 0.568,-0.175C0.57,-0.174 0.57,-0.172 0.569,-0.169C0.55,-0.116 0.519,-0.073 0.476,-0.04C0.433,-0.007 0.38,0.01 0.317,0.01ZM0.481,-0.335C0.484,-0.335 0.487,-0.336 0.489,-0.338C0.49,-0.34 0.491,-0.342 0.49,-0.345C0.487,-0.364 0.484,-0.378 0.479,-0.389C0.465,-0.42 0.444,-0.445 0.414,-0.462C0.386,-0.479 0.353,-0.488 0.317,-0.488C0.28,-0.488 0.248,-0.479 0.221,-0.462C0.193,-0.445 0.171,-0.42 0.156,-0.389C0.15,-0.376 0.145,-0.362 0.142,-0.346L0.142,-0.344C0.142,-0.338 0.145,-0.335 0.151,-0.335L0.481,-0.335Z" style="fill-rule:nonzero;"/>
                </g>
                <g transform="matrix(2.62574,0,0,2.62574,111.364,241.218)">
                    <path d="M0.081,-0C0.074,-0 0.071,-0.003 0.071,-0.01L0.071,-0.543C0.071,-0.55 0.074,-0.553 0.081,-0.553L0.146,-0.553C0.153,-0.553 0.156,-0.55 0.156,-0.543L0.156,-0.495C0.156,-0.49 0.158,-0.487 0.161,-0.487C0.164,-0.487 0.166,-0.488 0.168,-0.491C0.191,-0.516 0.216,-0.535 0.243,-0.546C0.269,-0.557 0.298,-0.563 0.331,-0.563C0.338,-0.563 0.341,-0.56 0.341,-0.553L0.341,-0.488C0.341,-0.481 0.338,-0.478 0.331,-0.478L0.312,-0.478C0.267,-0.478 0.232,-0.465 0.205,-0.438C0.172,-0.407 0.156,-0.358 0.156,-0.291L0.156,-0.01C0.156,-0.003 0.153,-0 0.146,-0L0.081,-0Z" style="fill-rule:nonzero;"/>
                </g>
                <g transform="matrix(2.62574,0,0,2.62574,112.28,241.218)">
                    <path d="M0.228,0.01C0.173,0.01 0.129,-0.004 0.097,-0.032C0.064,-0.06 0.048,-0.098 0.048,-0.147C0.048,-0.195 0.066,-0.233 0.102,-0.261C0.131,-0.284 0.174,-0.302 0.229,-0.313L0.417,-0.349C0.423,-0.35 0.426,-0.354 0.426,-0.36C0.424,-0.399 0.413,-0.429 0.392,-0.45C0.367,-0.475 0.333,-0.488 0.29,-0.488C0.257,-0.488 0.229,-0.48 0.204,-0.463C0.18,-0.446 0.164,-0.424 0.156,-0.396C0.154,-0.39 0.15,-0.387 0.145,-0.387L0.08,-0.387C0.073,-0.387 0.07,-0.391 0.071,-0.398C0.082,-0.45 0.108,-0.491 0.149,-0.52C0.19,-0.549 0.237,-0.563 0.291,-0.563C0.324,-0.563 0.354,-0.558 0.382,-0.549C0.41,-0.539 0.434,-0.525 0.453,-0.506C0.478,-0.482 0.494,-0.454 0.501,-0.423C0.508,-0.392 0.511,-0.359 0.511,-0.326L0.511,-0.01C0.511,-0.003 0.508,-0 0.501,-0L0.436,-0C0.429,-0 0.426,-0.003 0.426,-0.01L0.426,-0.067C0.426,-0.072 0.424,-0.075 0.421,-0.075C0.418,-0.075 0.416,-0.074 0.414,-0.071C0.397,-0.05 0.379,-0.034 0.359,-0.022C0.325,-0.001 0.281,0.01 0.228,0.01ZM0.238,-0.065C0.272,-0.065 0.301,-0.071 0.326,-0.084C0.362,-0.103 0.388,-0.127 0.403,-0.157C0.418,-0.187 0.426,-0.225 0.427,-0.271C0.427,-0.274 0.426,-0.277 0.424,-0.279C0.422,-0.28 0.419,-0.281 0.416,-0.28L0.247,-0.246C0.206,-0.238 0.175,-0.225 0.156,-0.207C0.141,-0.192 0.133,-0.172 0.133,-0.149C0.133,-0.124 0.142,-0.103 0.162,-0.088C0.181,-0.073 0.206,-0.065 0.238,-0.065Z" style="fill-rule:nonzero;"/>
                </g>
                <g transform="matrix(2.62574,0,0,2.62574,113.793,241.218)">
                    <path d="M0.247,-0C0.202,-0 0.169,-0.01 0.148,-0.03C0.127,-0.05 0.116,-0.086 0.116,-0.139L0.116,-0.468C0.116,-0.475 0.113,-0.478 0.106,-0.478L0.037,-0.478C0.03,-0.478 0.027,-0.481 0.027,-0.488L0.027,-0.543C0.027,-0.55 0.03,-0.553 0.037,-0.553L0.106,-0.553C0.113,-0.553 0.116,-0.556 0.116,-0.563L0.116,-0.753C0.116,-0.76 0.119,-0.763 0.126,-0.763L0.191,-0.763C0.198,-0.763 0.201,-0.76 0.201,-0.753L0.201,-0.563C0.201,-0.556 0.204,-0.553 0.211,-0.553L0.315,-0.553C0.322,-0.553 0.325,-0.55 0.325,-0.543L0.325,-0.488C0.325,-0.481 0.322,-0.478 0.315,-0.478L0.211,-0.478C0.204,-0.478 0.201,-0.475 0.201,-0.468L0.201,-0.156C0.201,-0.137 0.202,-0.122 0.205,-0.111C0.208,-0.1 0.214,-0.091 0.223,-0.085C0.232,-0.078 0.247,-0.075 0.267,-0.075L0.314,-0.075C0.321,-0.075 0.324,-0.072 0.324,-0.065L0.324,-0.01C0.324,-0.003 0.321,-0 0.314,-0L0.247,-0Z" style="fill-rule:nonzero;"/>
                </g>
                <g transform="matrix(2.62574,0,0,2.62574,114.741,241.218)">
                    <path d="M0.081,-0C0.074,-0 0.071,-0.003 0.071,-0.01L0.071,-0.543C0.071,-0.55 0.074,-0.553 0.081,-0.553L0.146,-0.553C0.153,-0.553 0.156,-0.55 0.156,-0.543L0.156,-0.01C0.156,-0.003 0.153,-0 0.146,-0L0.081,-0ZM0.114,-0.648C0.096,-0.648 0.081,-0.654 0.068,-0.667C0.055,-0.679 0.049,-0.694 0.049,-0.711C0.049,-0.728 0.055,-0.743 0.068,-0.755C0.081,-0.767 0.096,-0.773 0.114,-0.773C0.132,-0.773 0.147,-0.767 0.16,-0.755C0.173,-0.743 0.179,-0.728 0.179,-0.711C0.179,-0.694 0.173,-0.679 0.16,-0.667C0.147,-0.654 0.132,-0.648 0.114,-0.648Z" style="fill-rule:nonzero;"/>
                </g>
                <g transform="matrix(2.62574,0,0,2.62574,115.337,241.218)">
                    <path d="M0.318,0.01C0.266,0.01 0.22,-0.002 0.179,-0.027C0.138,-0.052 0.106,-0.086 0.083,-0.13C0.059,-0.174 0.048,-0.224 0.048,-0.279C0.048,-0.333 0.059,-0.382 0.083,-0.425C0.106,-0.468 0.138,-0.502 0.179,-0.527C0.22,-0.551 0.266,-0.563 0.318,-0.563C0.37,-0.563 0.417,-0.551 0.458,-0.527C0.499,-0.502 0.532,-0.468 0.555,-0.425C0.578,-0.382 0.59,-0.333 0.59,-0.279C0.59,-0.224 0.579,-0.174 0.556,-0.131C0.533,-0.087 0.5,-0.053 0.459,-0.028C0.418,-0.003 0.371,0.01 0.318,0.01ZM0.318,-0.065C0.353,-0.065 0.384,-0.074 0.412,-0.093C0.441,-0.112 0.463,-0.137 0.48,-0.17C0.496,-0.202 0.504,-0.238 0.504,-0.279C0.504,-0.318 0.496,-0.353 0.48,-0.385C0.464,-0.417 0.442,-0.442 0.413,-0.461C0.385,-0.479 0.353,-0.488 0.318,-0.488C0.283,-0.488 0.252,-0.479 0.224,-0.461C0.195,-0.443 0.173,-0.418 0.157,-0.386C0.141,-0.354 0.133,-0.318 0.133,-0.279C0.133,-0.238 0.141,-0.202 0.157,-0.169C0.173,-0.136 0.195,-0.111 0.224,-0.093C0.252,-0.074 0.283,-0.065 0.318,-0.065Z" style="fill-rule:nonzero;"/>
                </g>
                <g transform="matrix(2.62574,0,0,2.62574,117.014,241.218)">
                    <path d="M0.081,-0C0.074,-0 0.071,-0.003 0.071,-0.01L0.071,-0.543C0.071,-0.55 0.074,-0.553 0.081,-0.553L0.146,-0.553C0.153,-0.553 0.156,-0.55 0.156,-0.543L0.156,-0.486C0.156,-0.481 0.158,-0.478 0.161,-0.478C0.164,-0.478 0.166,-0.479 0.168,-0.482C0.193,-0.511 0.217,-0.532 0.241,-0.545C0.265,-0.557 0.291,-0.563 0.32,-0.563C0.398,-0.563 0.452,-0.534 0.483,-0.476C0.494,-0.454 0.501,-0.432 0.504,-0.408C0.507,-0.386 0.509,-0.36 0.509,-0.333L0.509,-0.01C0.509,-0.003 0.506,-0 0.499,-0L0.434,-0C0.427,-0 0.424,-0.003 0.424,-0.01L0.424,-0.333C0.424,-0.392 0.413,-0.433 0.392,-0.457C0.373,-0.478 0.345,-0.488 0.307,-0.488C0.265,-0.488 0.231,-0.474 0.206,-0.447C0.188,-0.428 0.175,-0.403 0.168,-0.37C0.16,-0.337 0.156,-0.293 0.156,-0.236L0.156,-0.01C0.156,-0.003 0.153,-0 0.146,-0L0.081,-0Z" style="fill-rule:nonzero;"/>
                </g>
                <g transform="matrix(2.62574,0,0,2.62574,104.954,243.843)">
                    <path d="M0.089,-0C0.082,-0 0.079,-0.003 0.079,-0.01L0.079,-0.753C0.079,-0.76 0.082,-0.763 0.089,-0.763L0.161,-0.763C0.168,-0.763 0.171,-0.76 0.171,-0.753L0.171,-0.01C0.171,-0.003 0.168,-0 0.161,-0L0.089,-0Z" style="fill-rule:nonzero;"/>
                </g>
                <g transform="matrix(2.62574,0,0,2.62574,105.613,243.843)">
                    <path d="M0.081,-0C0.074,-0 0.071,-0.003 0.071,-0.01L0.071,-0.543C0.071,-0.55 0.074,-0.553 0.081,-0.553L0.146,-0.553C0.153,-0.553 0.156,-0.55 0.156,-0.543L0.156,-0.486C0.156,-0.481 0.158,-0.478 0.161,-0.478C0.164,-0.478 0.166,-0.479 0.168,-0.482C0.193,-0.511 0.217,-0.532 0.241,-0.545C0.265,-0.557 0.291,-0.563 0.32,-0.563C0.398,-0.563 0.452,-0.534 0.483,-0.476C0.494,-0.454 0.501,-0.432 0.504,-0.408C0.507,-0.386 0.509,-0.36 0.509,-0.333L0.509,-0.01C0.509,-0.003 0.506,-0 0.499,-0L0.434,-0C0.427,-0 0.424,-0.003 0.424,-0.01L0.424,-0.333C0.424,-0.392 0.413,-0.433 0.392,-0.457C0.373,-0.478 0.345,-0.488 0.307,-0.488C0.265,-0.488 0.231,-0.474 0.206,-0.447C0.188,-0.428 0.175,-0.403 0.168,-0.37C0.16,-0.337 0.156,-0.293 0.156,-0.236L0.156,-0.01C0.156,-0.003 0.153,-0 0.146,-0L0.081,-0Z" style="fill-rule:nonzero;"/>
                </g>
                <g transform="matrix(2.62574,0,0,2.62574,107.126,243.843)">
                    <path d="M0.296,0.01C0.247,0.01 0.204,-0.002 0.167,-0.026C0.13,-0.05 0.101,-0.084 0.081,-0.127C0.06,-0.17 0.05,-0.22 0.05,-0.276C0.05,-0.332 0.06,-0.382 0.081,-0.426C0.101,-0.469 0.13,-0.503 0.167,-0.527C0.203,-0.551 0.247,-0.563 0.296,-0.563C0.331,-0.563 0.362,-0.557 0.388,-0.545C0.414,-0.533 0.44,-0.512 0.465,-0.482C0.467,-0.479 0.469,-0.478 0.472,-0.478C0.475,-0.478 0.477,-0.481 0.477,-0.486L0.477,-0.753C0.477,-0.76 0.48,-0.763 0.487,-0.763L0.552,-0.763C0.559,-0.763 0.562,-0.76 0.562,-0.753L0.562,-0.01C0.562,-0.003 0.559,-0 0.552,-0L0.487,-0C0.48,-0 0.477,-0.003 0.477,-0.01L0.477,-0.067C0.477,-0.072 0.475,-0.075 0.472,-0.075C0.469,-0.075 0.467,-0.074 0.465,-0.071C0.44,-0.042 0.414,-0.021 0.388,-0.009C0.362,0.004 0.331,0.01 0.296,0.01ZM0.304,-0.065C0.338,-0.065 0.368,-0.074 0.395,-0.092C0.422,-0.11 0.443,-0.135 0.458,-0.168C0.472,-0.2 0.48,-0.236 0.48,-0.276C0.48,-0.317 0.472,-0.353 0.458,-0.385C0.443,-0.417 0.422,-0.442 0.395,-0.461C0.368,-0.479 0.338,-0.488 0.304,-0.488C0.27,-0.488 0.24,-0.479 0.215,-0.461C0.189,-0.442 0.169,-0.417 0.156,-0.385C0.142,-0.353 0.135,-0.317 0.135,-0.276C0.135,-0.236 0.142,-0.2 0.156,-0.168C0.169,-0.136 0.189,-0.111 0.215,-0.093C0.24,-0.074 0.27,-0.065 0.304,-0.065Z" style="fill-rule:nonzero;"/>
                </g>
                <g transform="matrix(2.62574,0,0,2.62574,108.722,243.843)">
                    <path d="M0.318,0.01C0.266,0.01 0.22,-0.002 0.179,-0.027C0.138,-0.052 0.106,-0.086 0.083,-0.13C0.059,-0.174 0.048,-0.224 0.048,-0.279C0.048,-0.333 0.059,-0.382 0.083,-0.425C0.106,-0.468 0.138,-0.502 0.179,-0.527C0.22,-0.551 0.266,-0.563 0.318,-0.563C0.37,-0.563 0.417,-0.551 0.458,-0.527C0.499,-0.502 0.532,-0.468 0.555,-0.425C0.578,-0.382 0.59,-0.333 0.59,-0.279C0.59,-0.224 0.579,-0.174 0.556,-0.131C0.533,-0.087 0.5,-0.053 0.459,-0.028C0.418,-0.003 0.371,0.01 0.318,0.01ZM0.318,-0.065C0.353,-0.065 0.384,-0.074 0.412,-0.093C0.441,-0.112 0.463,-0.137 0.48,-0.17C0.496,-0.202 0.504,-0.238 0.504,-0.279C0.504,-0.318 0.496,-0.353 0.48,-0.385C0.464,-0.417 0.442,-0.442 0.413,-0.461C0.385,-0.479 0.353,-0.488 0.318,-0.488C0.283,-0.488 0.252,-0.479 0.224,-0.461C0.195,-0.443 0.173,-0.418 0.157,-0.386C0.141,-0.354 0.133,-0.318 0.133,-0.279C0.133,-0.238 0.141,-0.202 0.157,-0.169C0.173,-0.136 0.195,-0.111 0.224,-0.093C0.252,-0.074 0.283,-0.065 0.318,-0.065Z" style="fill-rule:nonzero;"/>
                </g>
                <g transform="matrix(2.62574,0,0,2.62574,110.4,243.843)">
                    <path d="M0.081,-0C0.074,-0 0.071,-0.003 0.071,-0.01L0.071,-0.543C0.071,-0.55 0.074,-0.553 0.081,-0.553L0.146,-0.553C0.153,-0.553 0.156,-0.55 0.156,-0.543L0.156,-0.486C0.156,-0.481 0.158,-0.478 0.161,-0.478C0.164,-0.478 0.166,-0.479 0.168,-0.482C0.193,-0.511 0.217,-0.532 0.241,-0.545C0.265,-0.557 0.291,-0.563 0.32,-0.563C0.398,-0.563 0.452,-0.534 0.483,-0.476C0.494,-0.454 0.501,-0.432 0.504,-0.408C0.507,-0.386 0.509,-0.36 0.509,-0.333L0.509,-0.01C0.509,-0.003 0.506,-0 0.499,-0L0.434,-0C0.427,-0 0.424,-0.003 0.424,-0.01L0.424,-0.333C0.424,-0.392 0.413,-0.433 0.392,-0.457C0.373,-0.478 0.345,-0.488 0.307,-0.488C0.265,-0.488 0.231,-0.474 0.206,-0.447C0.188,-0.428 0.175,-0.403 0.168,-0.37C0.16,-0.337 0.156,-0.293 0.156,-0.236L0.156,-0.01C0.156,-0.003 0.153,-0 0.146,-0L0.081,-0Z" style="fill-rule:nonzero;"/>
                </g>
                <g transform="matrix(2.62574,0,0,2.62574,111.913,243.843)">
                    <path d="M0.317,0.01C0.265,0.01 0.219,-0.002 0.178,-0.027C0.137,-0.052 0.105,-0.086 0.082,-0.129C0.059,-0.172 0.048,-0.221 0.048,-0.275C0.048,-0.326 0.059,-0.374 0.08,-0.418C0.101,-0.461 0.132,-0.496 0.172,-0.523C0.213,-0.55 0.26,-0.563 0.315,-0.563C0.362,-0.563 0.406,-0.552 0.447,-0.531C0.488,-0.51 0.52,-0.478 0.545,-0.438C0.57,-0.397 0.582,-0.347 0.582,-0.29L0.582,-0.27C0.582,-0.263 0.579,-0.26 0.572,-0.26L0.142,-0.26C0.139,-0.26 0.136,-0.259 0.135,-0.257C0.133,-0.255 0.132,-0.253 0.133,-0.25C0.136,-0.232 0.139,-0.217 0.143,-0.205C0.157,-0.162 0.18,-0.128 0.211,-0.103C0.242,-0.078 0.277,-0.065 0.316,-0.065C0.354,-0.065 0.387,-0.075 0.415,-0.095C0.443,-0.114 0.464,-0.139 0.478,-0.17C0.48,-0.175 0.484,-0.178 0.489,-0.178L0.56,-0.178C0.563,-0.178 0.566,-0.177 0.568,-0.175C0.57,-0.174 0.57,-0.172 0.569,-0.169C0.55,-0.116 0.519,-0.073 0.476,-0.04C0.433,-0.007 0.38,0.01 0.317,0.01ZM0.481,-0.335C0.484,-0.335 0.487,-0.336 0.489,-0.338C0.49,-0.34 0.491,-0.342 0.49,-0.345C0.487,-0.364 0.484,-0.378 0.479,-0.389C0.465,-0.42 0.444,-0.445 0.414,-0.462C0.386,-0.479 0.353,-0.488 0.317,-0.488C0.28,-0.488 0.248,-0.479 0.221,-0.462C0.193,-0.445 0.171,-0.42 0.156,-0.389C0.15,-0.376 0.145,-0.362 0.142,-0.346L0.142,-0.344C0.142,-0.338 0.145,-0.335 0.151,-0.335L0.481,-0.335Z" style="fill-rule:nonzero;"/>
                </g>
                <g transform="matrix(2.62574,0,0,2.62574,113.564,243.843)">
                    <path d="M0.294,0.01C0.226,0.01 0.17,-0.006 0.127,-0.037C0.084,-0.068 0.056,-0.112 0.045,-0.167L0.045,-0.169C0.045,-0.175 0.048,-0.178 0.054,-0.178L0.123,-0.178C0.13,-0.178 0.133,-0.175 0.134,-0.169C0.143,-0.136 0.16,-0.111 0.187,-0.093C0.213,-0.074 0.249,-0.065 0.295,-0.065C0.334,-0.065 0.365,-0.072 0.388,-0.087C0.41,-0.102 0.422,-0.123 0.422,-0.15C0.422,-0.171 0.415,-0.189 0.402,-0.202C0.388,-0.215 0.371,-0.224 0.349,-0.231C0.329,-0.238 0.301,-0.244 0.266,-0.251C0.223,-0.26 0.188,-0.269 0.162,-0.278C0.135,-0.286 0.113,-0.301 0.094,-0.321C0.075,-0.341 0.066,-0.369 0.066,-0.404C0.066,-0.454 0.085,-0.493 0.123,-0.521C0.16,-0.549 0.208,-0.563 0.267,-0.563C0.325,-0.563 0.374,-0.548 0.413,-0.519C0.452,-0.49 0.478,-0.449 0.489,-0.398L0.489,-0.396C0.489,-0.39 0.486,-0.387 0.48,-0.387L0.421,-0.387C0.415,-0.387 0.411,-0.39 0.41,-0.396C0.4,-0.427 0.383,-0.451 0.358,-0.466C0.333,-0.481 0.303,-0.488 0.267,-0.488C0.23,-0.488 0.202,-0.481 0.182,-0.468C0.161,-0.454 0.151,-0.435 0.151,-0.411C0.151,-0.392 0.157,-0.378 0.17,-0.367C0.183,-0.356 0.198,-0.348 0.217,-0.343C0.236,-0.337 0.262,-0.331 0.296,-0.324C0.341,-0.315 0.377,-0.306 0.405,-0.297C0.433,-0.287 0.457,-0.271 0.477,-0.25C0.497,-0.228 0.507,-0.198 0.507,-0.159C0.507,-0.107 0.488,-0.066 0.451,-0.035C0.414,-0.005 0.361,0.01 0.294,0.01Z" style="fill-rule:nonzero;"/>
                </g>
                <g transform="matrix(2.62574,0,0,2.62574,115.027,243.843)">
                    <path d="M0.081,-0C0.074,-0 0.071,-0.003 0.071,-0.01L0.071,-0.543C0.071,-0.55 0.074,-0.553 0.081,-0.553L0.146,-0.553C0.153,-0.553 0.156,-0.55 0.156,-0.543L0.156,-0.01C0.156,-0.003 0.153,-0 0.146,-0L0.081,-0ZM0.114,-0.648C0.096,-0.648 0.081,-0.654 0.068,-0.667C0.055,-0.679 0.049,-0.694 0.049,-0.711C0.049,-0.728 0.055,-0.743 0.068,-0.755C0.081,-0.767 0.096,-0.773 0.114,-0.773C0.132,-0.773 0.147,-0.767 0.16,-0.755C0.173,-0.743 0.179,-0.728 0.179,-0.711C0.179,-0.694 0.173,-0.679 0.16,-0.667C0.147,-0.654 0.132,-0.648 0.114,-0.648Z" style="fill-rule:nonzero;"/>
                </g>
                <g transform="matrix(2.62574,0,0,2.62574,115.623,243.843)">
                    <path d="M0.228,0.01C0.173,0.01 0.129,-0.004 0.097,-0.032C0.064,-0.06 0.048,-0.098 0.048,-0.147C0.048,-0.195 0.066,-0.233 0.102,-0.261C0.131,-0.284 0.174,-0.302 0.229,-0.313L0.417,-0.349C0.423,-0.35 0.426,-0.354 0.426,-0.36C0.424,-0.399 0.413,-0.429 0.392,-0.45C0.367,-0.475 0.333,-0.488 0.29,-0.488C0.257,-0.488 0.229,-0.48 0.204,-0.463C0.18,-0.446 0.164,-0.424 0.156,-0.396C0.154,-0.39 0.15,-0.387 0.145,-0.387L0.08,-0.387C0.073,-0.387 0.07,-0.391 0.071,-0.398C0.082,-0.45 0.108,-0.491 0.149,-0.52C0.19,-0.549 0.237,-0.563 0.291,-0.563C0.324,-0.563 0.354,-0.558 0.382,-0.549C0.41,-0.539 0.434,-0.525 0.453,-0.506C0.478,-0.482 0.494,-0.454 0.501,-0.423C0.508,-0.392 0.511,-0.359 0.511,-0.326L0.511,-0.01C0.511,-0.003 0.508,-0 0.501,-0L0.436,-0C0.429,-0 0.426,-0.003 0.426,-0.01L0.426,-0.067C0.426,-0.072 0.424,-0.075 0.421,-0.075C0.418,-0.075 0.416,-0.074 0.414,-0.071C0.397,-0.05 0.379,-0.034 0.359,-0.022C0.325,-0.001 0.281,0.01 0.228,0.01ZM0.238,-0.065C0.272,-0.065 0.301,-0.071 0.326,-0.084C0.362,-0.103 0.388,-0.127 0.403,-0.157C0.418,-0.187 0.426,-0.225 0.427,-0.271C0.427,-0.274 0.426,-0.277 0.424,-0.279C0.422,-0.28 0.419,-0.281 0.416,-0.28L0.247,-0.246C0.206,-0.238 0.175,-0.225 0.156,-0.207C0.141,-0.192 0.133,-0.172 0.133,-0.149C0.133,-0.124 0.142,-0.103 0.162,-0.088C0.181,-0.073 0.206,-0.065 0.238,-0.065Z" style="fill-rule:nonzero;"/>
                </g>
            </g>
        </g>
        <g transform="matrix(1,0,0,1,-0.924982,0)">
            <g transform="matrix(1,0,0,1,0.924982,0)">
                <path d="M2605.25,205.705L2653.32,205.705L2636.54,222.482L2612.2,222.482L2584.69,250L2596.55,261.863L2572.82,261.863C2572.82,261.863 2540.39,294.295 2540.39,294.295L2516.66,294.295L2560.96,250L2516.66,205.705L2540.39,205.705L2572.82,238.137L2605.25,205.705Z" style="fill:rgb(247,100,0);"/>
            </g>
        </g>
        <g transform="matrix(1,0,0,1,-0.924982,0)">
            <g transform="matrix(1,0,0,1,0.924982,0)">
                <path d="M2670.09,294.295L2653.32,294.295L2653.32,239.26L2670.09,239.26L2670.09,294.295ZM2619.15,239.26C2619.15,239.26 2564.12,294.295 2564.12,294.295L2587.84,294.295L2626.1,256.037L2636.54,256.037L2653.32,239.26L2619.15,239.26ZM2653.32,205.705L2653.32,222.482L2670.09,222.482L2670.09,205.705L2653.32,205.705Z" style="fill:rgb(237,5,14);"/>
            </g>
        </g>
    </g>
</svg>
